/* XPM */
static xpm_row_t const combo_xpm[] = {
"200 30 3 1",
" 	c None",
".	c #FEFEFE",
"+	c #FFFFFF",
"                                                                                                                                                  ..++++.                                               ",
"                                                                                                                                                 ++++++++                                               ",
"                                                                  .++++++++.  .++                                                                ++++++++                                               ",
"                                                                .++++++++++++.+++                                                                ++++++++                                               ",
"                                                               ++++++++++++++++++                                                                ..++++++                                               ",
"                                                              +++++++++++++++++++                                                                   +++++                                               ",
"                                                             +++++++++++++++++++++                                                                  +++++                                               ",
"                                                            +++++++        ++++++.                                                                  +++++                                               ",
" ..+++++..     .+++++.                                     .++++++          .++++.               ......             .+++.   +++++    ++++++         +++++    .....                      ......          ",
".+++++++++.   +++++++++                                    ++++++.           ++++.            .+++++++++.         .++++++..+++++++ .+++++++.        +++++  .+++++++.                  .+++++++++.       ",
".++++++++++  .+++++++++.                                  ++++++.            ++++.          +++++++++++++++.      ++++++++++++++++++++++++++        +++++.+++++++++++.             .+++++++++++++++     ",
".++++++++++  .+++++++++.                                  ++++++             .+++          +++++++++++++++++.     .++++++++++++++++++++++++++       +++++++++++++++++++.          .+++++++++++++++++    ",
" +++++++++.  .+++++++++.                                  ++++++              .++         ++++++++++++++++++++    .++++++++++++++++++++++++++       ++++++++++++++++++++         .+++++++++++++++++++   ",
"    ++++++     ++++.                                     .++++++                         ++++++++.    .+++++++.      ++++++   +++++++   +++++.      ++++++++.   .+++++++.       .+++++++.    .++++++++  ",
"     +++++.   ++++.                                      .++++++                        .++++++.        +++++++      +++++    ++++++    +++++.      ++++++.       .++++++.      ++++++.        .++++++. ",
"      +++++. ++++.                                       .++++++                        +++++++          ++++++.     +++++    ++++++    +++++.      ++++++         +++++++     .++++++          +++++++ ",
"      .++++++++++                                        .++++++                        ++++++           .++++++     +++++    ++++++    ++++++      +++++.          ++++++     ++++++.           ++++++ ",
"       .++++++++.                                        .++++++                       .++++++            ++++++     +++++    ++++++    ++++++      +++++           ++++++.   .++++++            ++++++.",
"        .++++++.                                         .++++++                       .++++++            ++++++     +++++    ++++++    ++++++      +++++           ++++++.   .++++++            ++++++.",
"         ++++++.                                          ++++++                       .++++++            ++++++     +++++    ++++++    ++++++      +++++           ++++++.   .++++++            ++++++.",
"       .++++++++.                                         ++++++                       .++++++            ++++++     +++++    ++++++    ++++++      +++++           ++++++.   .++++++            ++++++.",
"       ++++++++++.                                        +++++++                      .++++++            ++++++     +++++    ++++++    ++++++      +++++           ++++++.   .++++++            ++++++.",
"     .+++++..+++++.                                       .++++++                       ++++++           .++++++     +++++    ++++++    ++++++      +++++.          ++++++     ++++++.           ++++++ ",
"    .+++++   .+++++.                                       +++++++            .+++      +++++++          ++++++.     +++++    ++++++    ++++++      ++++++         .++++++     .++++++          +++++++ ",
"    +++++.    .+++++.                                      .++++++.         ++++++.     .++++++.        +++++++      +++++    ++++++    ++++++      +++++++       .+++++++      ++++++.        .++++++. ",
" .+++++++.    .++++++++.                                    .+++++++.     .+++++++.      ++++++++.    .+++++++.    .+++++++.  +++++++.  +++++++   .+++++++++.   .++++++++       .+++++++.    .++++++++  ",
" +++++++++   +++++++++++                                     +++++++++++++++++++++        ++++++++++++++++++++    .+++++++++. ++++++++  +++++++. +++++++++++++++++++++++.        .+++++++++++++++++++   ",
" +++++++++.  +++++++++++                                      .++++++++++++++++++          ++++++++++++++++++     +++++++++++ ++++++++  ++++++++ ++++++++++++++++++++++.          .+++++++++++++++++    ",
" +++++++++   .++++++++++                                       .+++++++++++++++.            +++++++++++++++.      .+++++++++. ++++++++  +++++++. +++++++..++++++++++++.            .+++++++++++++++     ",
"  ..++++..    ..+++++..                                           .++++++++..                 .+++++++++.          ..+++++.+   .++++.    .++++.   ..+++.   .+++++++.                  .+++++++++.       "};
