/* XPM */
static xpm_row_t const eight_xpm[] = {
"32 50 2 1",
" 	c None",
".	c #FFFFFF",
"        ................        ",
"       ..................       ",
"      ....................      ",
"      ....................      ",
"      ....................      ",
"      ....................      ",
"      .......      .......      ",
"      .......      .......      ",
"      .......      .......      ",
"      .......      .......      ",
"      .......      .......      ",
"      .......      .......      ",
"      .......      .......      ",
"      .......      .......      ",
"      .......      .......      ",
"      .......      .......      ",
"      .......      .......      ",
"      .......      .......      ",
"      .......      .......      ",
"      .......      .......      ",
"      .......      .......      ",
"      .......      .......      ",
"   ..........................   ",
"  ............................  ",
" .............................. ",
" .............................. ",
"................................",
"................................",
"......                    ......",
"......                    ......",
"......                    ......",
"......                    ......",
"......                    ......",
"......                    ......",
"......                    ......",
"......                    ......",
"......                    ......",
"......                    ......",
"......                    ......",
"......                    ......",
"......                    ......",
"......                    ......",
"......                    ......",
"................................",
"................................",
"................................",
" .............................. ",
" .............................. ",
"   ..........................   ",
"    ........................    "};
