/* XPM */
static xpm_row_t const seven_xpm[] = {
"32 50 2 1",
" 	c None",
".	c #FFFFFF",
" ...............................",
"................................",
"................................",
"................................",
"................................",
"................................",
"......                   .......",
"......                   .......",
" ....                    .......",
"                         .......",
"                         .......",
"                         .......",
"                         .......",
"                         .......",
"                         .......",
"                         .......",
"                         .......",
"                         .......",
"                         .......",
"                        ........",
"                      ..........",
"                     .......... ",
"                    ..........  ",
"                   ..........   ",
"                  ..........    ",
"                ...........     ",
"               ..........       ",
"              ..........        ",
"             ..........         ",
"             .........          ",
"             ........           ",
"             .......            ",
"             ......             ",
"             ......             ",
"             ......             ",
"             ......             ",
"             ......             ",
"            .......             ",
"            .......             ",
"            .......             ",
"            .......             ",
"             ......             ",
"             ......             ",
"             ......             ",
"             ......             ",
"             ......             ",
"             ......             ",
"             ......             ",
"             ......             ",
"              ...               "};
