/* XPM */
static xpm_row_t const six_xpm[] = {
"32 50 2 1",
" 	c None",
".	c #FFFFFF",
"  ......                        ",
" ........                       ",
"..........                      ",
"..........                      ",
".........                       ",
".........                       ",
"......                          ",
"......                          ",
"......                          ",
"......                          ",
"......                          ",
"......                          ",
"......                          ",
"......                          ",
"......                          ",
"......                          ",
"......                          ",
"......                          ",
"......                          ",
"......                          ",
"......                          ",
"......                          ",
"......                          ",
"......                          ",
"......                          ",
"......                          ",
"......                          ",
"..............................  ",
"............................... ",
"................................",
"................................",
"................................",
"................................",
".......                  .......",
"......                    ......",
"......                    ......",
"......                    ......",
"......                    ......",
"......                    ......",
"......                    ......",
"......                    ......",
"......                    ......",
"......                    ......",
"................................",
"................................",
"................................",
"................................",
"................................",
" .............................. ",
" .............................. "};
