/* XPM */
static xpm_row_t const apple_xpm[] = {
"53 60 206 2",
"  	c None",
". 	c #36AE1B",
"+ 	c #096E03",
"@ 	c #FCCCCF",
"# 	c #288213",
"$ 	c #955858",
"% 	c #814C47",
"& 	c #6C7D3E",
"* 	c #AAAA7F",
"= 	c #2A9D10",
"- 	c #FFC4C4",
"; 	c #188707",
"> 	c #AA6E6D",
", 	c #37AB1B",
"' 	c #672C25",
") 	c #FECBCD",
"! 	c #FFC9CE",
"~ 	c #9E6C6D",
"{ 	c #2CA112",
"] 	c #FEC7CB",
"^ 	c #581813",
"/ 	c #9A6766",
"( 	c #6E332F",
"_ 	c #FCBEC1",
": 	c #672821",
"< 	c #FFD1D6",
"[ 	c #38B31C",
"} 	c #FEC8CD",
"| 	c #FDC5C7",
"1 	c #FBC4C6",
"2 	c #9B6A6C",
"3 	c #1B8D06",
"4 	c #EF7F72",
"5 	c #B81A16",
"6 	c #A9201D",
"7 	c #BC201A",
"8 	c #107905",
"9 	c #118106",
"0 	c #B01B18",
"a 	c #9A2E2E",
"b 	c #B02E2B",
"c 	c #B4211C",
"d 	c #A02B2A",
"e 	c #A92F2D",
"f 	c #982323",
"g 	c #9C1917",
"h 	c #8D2C2C",
"i 	c #85292A",
"j 	c #C71B14",
"k 	c #A61717",
"l 	c #C52516",
"m 	c #C1211A",
"n 	c #933030",
"o 	c #A72725",
"p 	c #A23132",
"q 	c #BF2621",
"r 	c #B92622",
"s 	c #AD2823",
"t 	c #932928",
"u 	c #CB2C19",
"v 	c #C01B15",
"w 	c #A02422",
"x 	c #A21D1B",
"y 	c #B22622",
"z 	c #AF3633",
"A 	c #C82320",
"B 	c #B62C27",
"C 	c #7C2626",
"D 	c #AD1615",
"E 	c #CC2315",
"F 	c #CC1A10",
"G 	c #C22B1E",
"H 	c #A93E3E",
"I 	c #931B1A",
"J 	c #FFEADD",
"K 	c #279C10",
"L 	c #D1251E",
"M 	c #17880A",
"N 	c #D32C15",
"O 	c #DB2812",
"P 	c #BD2E25",
"Q 	c #D32211",
"R 	c #9D6768",
"S 	c #22950D",
"T 	c #066D02",
"U 	c #0B7304",
"V 	c #E03215",
"W 	c #1D8E0B",
"X 	c #EA471A",
"Y 	c #C72E27",
"Z 	c #D02F28",
"` 	c #FF7F43",
" .	c #722222",
"..	c #F0501C",
"+.	c #8B2322",
"@.	c #BA332D",
"#.	c #924A49",
"$.	c #E1401D",
"%.	c #D92C24",
"&.	c #2CA413",
"*.	c #3DB71C",
"=.	c #D7351C",
"-.	c #FFDED4",
";.	c #E63B16",
">.	c #FFC0BE",
",.	c #9C3939",
"'.	c #E03428",
").	c #33AB17",
"!.	c #A24B4B",
"~.	c #823636",
"{.	c #FE6D3E",
"].	c #A15253",
"^.	c #A14343",
"/.	c #9F5F60",
"(.	c #FEB8B7",
"_.	c #FEA5A2",
":.	c #913C3C",
"<.	c #681B1B",
"[.	c #FD9B96",
"}.	c #2C9F3C",
"|.	c #F75725",
"1.	c #F34C3A",
"2.	c #AF504F",
"3.	c #FF8A5C",
"4.	c #26972A",
"5.	c #FE867E",
"6.	c #D53A2E",
"7.	c #FEAFAD",
"8.	c #FA543F",
"9.	c #FD6039",
"0.	c #814544",
"a.	c #1E8D1D",
"b.	c #9C5959",
"c.	c #E93D2E",
"d.	c #DF3C30",
"e.	c #FE918C",
"f.	c #FC6623",
"g.	c #30A22D",
"h.	c #FFC6C6",
"i.	c #FE7D71",
"j.	c #FFA88E",
"k.	c #37AB40",
"l.	c #975252",
"m.	c #733030",
"n.	c #CD6062",
"o.	c #E5473A",
"p.	c #EF482D",
"q.	c #56A215",
"r.	c #632F12",
"s.	c #FEB49D",
"t.	c #FFBFAE",
"u.	c #FF987D",
"v.	c #FFCFCF",
"w.	c #FF7748",
"x.	c #FFAF7D",
"y.	c #E85855",
"z.	c #B7423F",
"A.	c #119605",
"B.	c #FF916D",
"C.	c #FFDAC5",
"D.	c #FD5E4E",
"E.	c #EF7B79",
"F.	c #FFCFB3",
"G.	c #7F4921",
"H.	c #915D5E",
"I.	c #C53D36",
"J.	c #FFC6A0",
"K.	c #FE765F",
"L.	c #F96A66",
"M.	c #78B80B",
"N.	c #F58B87",
"O.	c #FF8A49",
"P.	c #D14C49",
"Q.	c #FFA36A",
"R.	c #FFD2BF",
"S.	c #EFA3A6",
"T.	c #895658",
"U.	c #FEBD8F",
"V.	c #FE6B52",
"W.	c #C0D115",
"X.	c #E96A68",
"Y.	c #FE7628",
"Z.	c #E29296",
"`.	c #FF9D57",
" +	c #3D9111",
".+	c #BD7778",
"++	c #E2D228",
"@+	c #C15453",
"#+	c #A0D011",
"$+	c #FCCA6C",
"%+	c #15A405",
"&+	c #D86B6D",
"*+	c #4F1B08",
"=+	c #B56063",
"-+	c #D77B80",
";+	c #CD8C8D",
">+	c #F8CC3F",
",+	c #606213",
"'+	c #FD9634",
")+	c #ECEAA4",
"!+	c #BCEE36",
"~+	c #E3EE79",
"{+	c #D7F044",
"]+	c #BA6F19",
"^+	c #959C1E",
"/+	c #BEB653",
"                                                                              &..   .                     ",
"                                                                      K g.}.k.k.k.k.k.g.g.*.*.        *.*.",
"                                                                  S g.}.}.}.}.k.k.}.4.g.g.*.g.K ).*.*.).*.",
"                                                                S g.}.4.}.4.}.g.4.4.a.g.).&.K K *.&.&.*.  ",
"                                                              W 4.g.4.4.a.4.a.K W 8 S  +K S A.K K K ).*.  ",
"                                                            M a.a.a.W 8 9 M M 9 8 M S M W M K A.A.%+&.    ",
"                                                            M M 8 9 8 9 U 9 8 8 A.8 9 q.9 W K &.).).).    ",
"                                                          8 9 U U U T U U U 9  + +8 U %+S S K  +).).      ",
"                                                          U 8 T U # q.q.T M U 8 8 M # S M %+S S &.).      ",
"                                          G.*+          T q.T T T T T U T T A.8 9 W S K S K K K ).        ",
"                                          *+*+        g.U U U 8 T T U U 8 8 9 A.8 9 W S K K &.).          ",
"                                          G.r.*+    g.        8 8 T A.8 8 # M 9 8 M 9 M S %+&.            ",
"                                          G.#.*+  *.              8 8 T U 8 M M M W M M S K               ",
"                                            l.r.  q.                  9 8 U 8 9 W W S K                   ",
"                                            % G.#                           ; M                           ",
"                                              G.,+                                                        ",
"                        < -.v.v.v.h.h.h.>.>.  G.,+          4 4                                           ",
"                    -.v.h.h.>.(.>.>.>.>.7.(.t.J.r.U.U.j.[.e.N.N.E.E.X.&+=+b.                              ",
"                v.h.(.7.7._._._.7.v.-.F.$+>+++++r.++++++>+$+U._.N.X.y.y.P.P.H #.                          ",
"            ) >.(._.[.e.e.5.5.5.5.[.>.J {+W.#+M.G.#+#+W.W.{+)+7.N.E.D.6.Z Y r w +.                        ",
"          < 7.[.5.i.L.y.o.o.8.1.8.5.i.[.h.!+M.M.,+,+M.M.!+~+>._.u.c.'.'.Z A q 6 w  . .                    ",
"        ] _.5.i.L.Z o.o.d.1.8.1.8.8.9.{.w.B.s./+q.#  +/+t.s.5.8.p.c.c.6.%.Y q r x f I                     ",
"        _.5.L.y.Z 6.6.d.d.1.D.V.8.9.9.w.{.` w.w.w.3.` w.` 9.{.1.p.p.d.%.6.A Y r s g I  .                  ",
"      _.L.y.o.q 6.Y 6.d.d.D.5.[.t.s.j.u.3.` w.O.` ` ` O.3.K.B.B.K.8.'.%.Z Z A q 6 x I C <.                ",
"    } 5.X.P.r q Y Z o.%.1.V.e._.t.R.C.-.J -.-.-.-.-.-.C.C.R.t.s.5.D.c.d.%.A 7 c 0 6 I C C %               ",
"    [.X.y.c y Y 6.6.6.d.1.K.u.[.t.R.-.-.J J J J J J J J -.R.t.s.5.K.8.'.%.A m c 0 k w I C m.              ",
"  } 5.n.@.k c q A 6.L d.1.D.B.e.j.s.F.R.-.-.J J J J C.-.R.F.t.j.5.V.{.'.=.Z m G 0 k s I +.m.              ",
"  7.X.P.k k c q m Y L '.1.D.i.3.5.u.x.U.J.J.F.F.F.F.F.t.U.s.j.Q.K.D.9.'.Z L A G 5 k x I +.b.0.            ",
"  [.&+I.o D c q m A L %.1.1.w.V.V.3.`.B.Q.x.x.x.x.x.x.u.x.B.3.3.V.9.1.%.L j m P q k x g t l.T.            ",
"  e.n.o k c 0 r A A A %.'.o.9.8.{.w.O.` O.3.`.`.`.`.`.`.3.` V.9.9.p.$.%.L L m q c 6 6 H ^.l.T.            ",
") N.P.o y y D q A A A L =.'.X p.f.|.f.9.` {.` '+Y.O.O.` ` 9.|...p.$.%.L L j m 7 0 k x H H ].H.            ",
"v.E.P.s y y D 5 v m u L Z O =.V ..p.|.|.f.|.Y.'+f.f.Y.f.f.|.p.p.'.c.V Q F m G 5 r k x z.2.!.H.            ",
"h.Z.P.e s s 0 5 7 v l j u Q %.%.X $.X X ......Y.f.|.......;.|.$.V $.'.N j m m D c g g H H ]./.            ",
"h.E.z.e 6 s D 5 5 5 u j L E N O =.X V ;.X X ....f.X X ....'...X %.V %.L j m 5 D 0 k g d ^.]./.            ",
"v.Z.z.z s s k 0 c 5 m v l j Q Q N =.O O ;.X ;.;.X ;.X X $.V $.$.L N E E v m c 5 6 k g g ^.]./.            ",
"v.Z.z.e s s r 0 r 7 m m v u N E N N Q Q O ;.O V ;.V ;.$.X O V $.E N l u l m 5 D 6 g g I H ]./.            ",
"< N.n.z x s 6 k 0 c Y 7 v v u j u Q Q O O V O Q V O V N $.'.V =.F u j l 7 5 c k 6 g x I !.].H.            ",
"  Z.n.p x 6 k c D 0 5 7 v l l E E E Q N Q Q O Q Q O Q N $.%.Q =.j =.j m 7 5 r k 6 x f f !.2.R             ",
"  S.@+H o o k k k 0 D 5 7 v l l l E N E F F V Q Q F Q E =.E F u j u v m 0 5 c g 6 x e f 2.b.H.            ",
"  _..+H e x x 6 6 D D 0 5 5 m l u l E u F F E F E Q F E N E j u j v 5 5 D 0 r x k g w a !./.R             ",
"  (.n.H z b w k 6 B c 0 5 5 7 A u l l u j j E F E j F E u j v G v 5 5 5 5 6 6 k g g f ,.!./.%             ",
"  _ -+2.H e w g 6 B c 0 0 7 7 7 v u v u j E j E l j j u =.A m l 7 q 5 c 0 6 k x g I d ^.]./.              ",
"    S.2.H d o x s x 6 0 0 c 5 7 v G v l A l Z u A m A A u j G G 7 P 5 y D k k g g I f ^.].R               ",
"    7..+H p d w o x s k 6 c 0 5 q G 5 6.m m m Z m m A Z G v Y I.r P c @.y 6 6 g I I t =+b.R               ",
"    h.-+2.p w w x o x 6 s y r c r P 7 G G q m G A 7 m G q 7 P 7 c @.0 y 6 w b f I t ,.]./.                ",
"      Z.2.H a z.o d 6 o 6 s P.y c @.c P q q q Y 7 q q P r r @.y y s y o s w z f f a ^.b.R                 ",
"      (.n.H ,.d w z.f o x b B B y P r B r r r Y I.r q P r y P B y s o o w d f I t n !./.                  ",
"        Z.2.^.a t I f w x b b z s b y B B r B q B B P B B B @.b b s w e z d I t n :.].R                   ",
"        >..+^.,.t t f w d e e o b b s B y r I.B B B @.I.B b @.@.e w e d f d +.t n #./.                    ",
"          ;+].!.n a t f d d d o e e s b @.b @.b b b b @.b b z e d w d d f +.+.n :.b.R                     ",
"          ] .+!.:.n t a a a z e e e b b z z z b b b b b z e z.e e d a f +.+.n :.!.R                       ",
"            S.=+^.,.h t ,.a d d d d H z.d e z z z.e e e e d p d a f a n +.h :.#./.                        ",
"              ;+l.:.h h +.t a t a a d p p H p p z.e e e d d p a t H t t +.n :.b.R                         ",
"                .+l.:.h i h h t p a a a a z.p d d p a @+p H a t t h t i n :.]..+                          ",
"                _ R #.:.n i i h n n n a ,.p a a p a a a n t n n h h +.n :.#.R                             ",
"                    /.#.0.~.i i i h h h t h t n ,.n n h n h n i C i i ~.#.R                               ",
"                      H.#.:.C C C i C i h i n h h h i h i h i i C i ~.b.R                                 ",
"                        R #.0.~.:. .C C i C i C i :.i i i C  . .~.0.#.R                                   ",
"                            T.0.m. . .<.<. . . . . . .C  . . .~.0.T.                                      ",
"                                    ^ :             : <.<.m.m.%                                           "};
